<?xml version="1.0" standalone="no"?>
<!DOCTYPE svg PUBLIC "-//W3C//DTD SVG 20010904//EN"
 "http://www.w3.org/TR/2001/REC-SVG-20010904/DTD/svg10.dtd">
<svg version="1.0" xmlns="http://www.w3.org/2000/svg"
 width="263.000000pt" height="260.000000pt" viewBox="0 0 263.000000 260.000000"
 preserveAspectRatio="xMidYMid meet">

<g transform="translate(0.000000,260.000000) scale(0.100000,-0.100000)"
fill="#000000" stroke="none">
<path d="M1660 2205 c-17 -10 -38 -13 -65 -8 -123 20 -231 -20 -331 -123 -34
-35 -69 -80 -79 -101 -10 -21 -19 -39 -20 -41 -1 -2 -24 10 -51 26 -40 23
-130 73 -204 113 -8 5 -40 19 -70 33 -174 78 -281 88 -384 37 -34 -17 -77 -32
-96 -33 -34 -3 -35 -4 -33 -43 1 -22 3 -78 5 -125 3 -66 9 -94 27 -126 24 -42
92 -101 150 -130 36 -18 39 -29 11 -44 -11 -6 -31 -30 -45 -54 -31 -53 -33
-124 -5 -195 l20 -51 -48 -47 c-123 -124 -103 -344 43 -482 104 -99 195 -120
349 -81 l87 22 53 -26 c101 -49 259 -209 352 -354 21 -34 45 -62 52 -62 18 0
16 5 -24 72 -99 170 -285 349 -398 383 -36 11 -53 9 -135 -11 -76 -18 -103
-21 -142 -14 -102 20 -198 92 -247 185 -37 71 -44 220 -14 288 18 40 77 97
114 109 6 2 -1 20 -15 42 -71 103 -28 247 86 291 79 30 179 1 321 -92 83 -56
101 -72 118 -110 17 -39 18 -51 8 -91 -33 -131 -108 -169 -247 -125 -40 13
-56 14 -65 5 -9 -9 -3 -15 25 -27 20 -8 42 -15 50 -15 22 0 104 -85 109 -114
8 -40 -9 -113 -33 -148 -57 -80 -228 -91 -312 -20 -9 8 -20 12 -24 8 -12 -12
12 -39 57 -63 50 -27 123 -30 193 -9 143 43 200 200 111 306 l-26 30 34 0 c69
0 139 69 159 157 23 97 -5 151 -114 225 -125 85 -265 133 -351 122 -52 -7
-101 14 -175 74 -52 42 -72 85 -72 155 -1 138 113 242 244 222 101 -15 290
-96 425 -182 29 -18 56 -33 60 -33 4 0 18 -9 32 -20 14 -11 30 -20 37 -20 7 0
25 26 40 57 54 110 166 199 283 224 98 21 216 -39 241 -121 21 -69 -27 -195
-117 -313 -34 -44 -42 -61 -35 -75 15 -28 62 -67 141 -118 86 -54 390 -234
396 -234 2 0 23 -12 45 -26 30 -18 44 -23 52 -15 13 13 -1 25 -71 61 -26 13
-80 44 -120 67 -41 24 -78 43 -83 43 -5 0 -9 5 -9 10 0 6 -4 10 -10 10 -28 0
-304 190 -308 213 -2 9 14 38 35 64 21 27 56 83 77 126 34 66 40 87 40 140 0
43 -6 71 -17 87 -9 14 -17 43 -17 65 0 62 -22 77 -70 50z m50 -41 c0 -16 -9
-18 -30 -4 -13 9 -13 11 0 19 17 12 30 5 30 -15z m-1330 -91 c0 -5 -5 -15 -10
-23 -9 -13 -11 -13 -19 0 -5 8 -7 18 -5 22 6 10 34 11 34 1z"/>
<path d="M941 1374 c-12 -15 -21 -38 -21 -52 0 -23 3 -24 37 -19 49 8 54 16
36 60 -18 44 -25 45 -52 11z m33 -29 c3 -9 0 -15 -9 -15 -8 0 -15 7 -15 15 0
8 4 15 9 15 5 0 11 -7 15 -15z"/>
<path d="M781 1026 c-31 -49 -28 -66 12 -66 53 0 61 10 41 58 -9 23 -20 42
-24 42 -5 0 -18 -15 -29 -34z m30 -29 c-1 -12 -15 -9 -19 4 -3 6 1 10 8 8 6
-3 11 -8 11 -12z"/>
</g>
</svg>
